{"title":"Jackass 3 2010 UNRATED BRRip SAFCuk009 {DragonTrG}","uid":6202279,"size":2504673094,"categoryP":"video","categoryS":"movies","magnet":"?xt=urn:btih:5fd13eb41b8d68a7d9e77200d7f25b7e60086dd7&amp;dn=Jackass+3+2010+UNRATED+BRRip+SAFCuk009+%7BDragonTrG%7D&amp;tr=udp%3A%2F%2Ftracker.openbittorrent.com%3A80&amp;tr=udp%3A%2F%2Fopen.demonii.com%3A1337&amp;tr=udp%3A%2F%2Ftracker.coppersurfer.tk%3A6969&amp;tr=udp%3A%2F%2Fexodus.desync.com%3A6969","seeders":0,"leechers":0,"uploader":"SAFCukO09","files":3,"time":1298662351,"description":"Format : AVI\nFormat/Info : Audio Video Interleave\nFormat profile : OpenDML\nFile size : 2.33 GiB\nDuration : 1h 39mn\nOverall bit rate : 3 372 Kbps\nWriting application : VirtualDubMod 1.5.10.2 (build 2542/release)\nWriting library : VirtualDub build 32839/release\n\nVideo\nID : 0\nFormat : MPEG-4 Visual\nFormat profile : Advanced Simple@L5\nFormat settings, BVOP : Yes\nFormat settings, QPel : No\nFormat settings, GMC : No warppoints\nFormat settings, Matrix : Custom\nCodec ID : XVID\nCodec ID/Hint : XviD\nDuration : 1h 39mn\nBit rate : 2 913 Kbps\nWidth : 720 pixels\nHeight : 400 pixels\nDisplay aspect ratio : 16:9\nFrame rate : 23.976 fps\nColor space : YUV\nChroma subsampling : 4:2:0\nBit depth : 8 bits\nScan type : Progressive\nBits/(Pixel*Frame) : 0.422\nStream size : 2.01 GiB (86%)\nWriting library : XviD 1.2.1 (UTC 2008-12-04)\n\nAudio\nID : 1\nFormat : AC-3\nFormat/Info : Audio Coding 3\nMode extension : CM (complete main)\nCodec ID : 2000\nDuration : 1h 39mn\nBit rate mode : Constant\nBit rate : 448 Kbps\nChannel(s) : 6 channels\nChannel positions : Front: L C R, Side: L R, LFE\nSampling rate : 48.0 KHz\nBit depth : 16 bits\nStream size : 317 MiB (13%)\nAlignment : Split accross interleaves\nInterleave, duration : 42 ms (1.00 video frame)\nInterleave, preload duration : 500 ms\n\n\n\n\n &lt;a href=&quot;\nhttp://www.imdb.com/title/tt1116184/&quot; rel=&quot;nofollow&quot; target=&quot;_NEW&quot;&gt;\nhttp://www.imdb.com/title/tt1116184/&lt;/a&gt;\n\n\n\n\n89524873606771859129.png\n\nUsers: 7.3/10 (8,106 votes) 54 reviews | Critics: 118 reviews Metascore: 56/100 (based on 24 reviews from Metacritic.com)\n\nJohnny Knoxville and company return for the third installment of their TV show spin-off, where dangerous stunts and explicit public displays rule.\nDirector:\nJeff Tremaine\nWriter:\nPreston Lacy\nStars:\nJohnny Knoxville, Steve-O and Bam Margera\n\n\n\nSource Used\n\nJackass 3 UNRATED 720p BluRay x264-TWiZTED -Thanks\n\nBig file size for a non 720p but gotta try something abit different so gonna for a high bitrate ,high quality encode\n\nEnjoy !\n\n\n\n\n\nGreetz to Imagine ,Flawl3ss ,Santi ,Vision ,Kingdom, BDK, TOXiC, iNK, THC, Ez, Rx,\n\n\n\n","torrent":{"xt":"urn:btih:5fd13eb41b8d68a7d9e77200d7f25b7e60086dd7","amp;dn":"Jackass+3+2010+UNRATED+BRRip+SAFCuk009+%7BDragonTrG%7D","amp;tr":["udp%3A%2F%2Ftracker.openbittorrent.com%3A80","udp%3A%2F%2Fopen.demonii.com%3A1337","udp%3A%2F%2Ftracker.coppersurfer.tk%3A6969","udp%3A%2F%2Fexodus.desync.com%3A6969"],"infoHash":"5fd13eb41b8d68a7d9e77200d7f25b7e60086dd7","infoHashBuffer":{"type":"Buffer","data":[95,209,62,180,27,141,104,167,217,231,114,0,215,242,91,126,96,8,109,215]},"announce":[],"urlList":[]}}